<svg id="Layer_1" data-name="Layer 1" xmlns="http://www.w3.org/2000/svg" viewBox="0 0 362.93 424"><defs><style>.cls-1{fill:#555;}</style></defs><title>quick order</title><path class="cls-1" d="M437.47,300.49c-4,1.3-7.87,3.37-11.92,3.72-5.41.46-8.75-2.5-8.47-8.48.11-2.32,0-4.65,0-7q0-97.24,0-194.48c0-22.43-8-30.38-30.47-30.38H125c-21.85,0-30,8.11-30,30q0,148.7,0,297.38c0,21.84,8,29.65,30.05,29.65q59.73,0,119.47,0c8.17,0,11.93,3.5,11.39,10.57-.43,5.57-2.87,9.27-9.21,9.26-49.13-.1-98.26.14-147.38-.37-14.29-.14-21.13-10.33-24.81-23V66.68c3.28-11,10.38-18.43,20.94-22.68H416.53c10.57,4.25,17.63,11.73,20.94,22.68ZM364.18,468c6.33-1.86,12.89-3.14,18.93-5.67,29.94-12.53,48-34.65,52.89-67a59.72,59.72,0,0,1,1.47-5.82V377.27c-3.05-15.39-6.91-30.46-16.82-43.19-17.68-22.73-40.49-34.55-70.49-33.82,0,12.36-.2,23.92.08,35.47.16,6.55,4.7,9.06,10.62,8.8,5.76-.24,9.06-3.34,8.86-9.51-.12-3.91,0-7.82,0-12.52,3.28.9,5.24,1.27,7.07,2,30.25,11.65,46.77,45.23,37.9,76.94-9.25,33.08-44,53.23-76.93,44.57-34.11-9-55.21-43.25-46.55-76.35,4.83-18.43,17.14-32,31-44.3,3.63-3.22,6.71-7.32,2.59-10.89-3.07-2.65-4.45-3.86-8.89-4.56-1.31-.2-7,2.57-8.43,3.52C261.7,343.57,256.6,408.79,296.9,446c13.23,12.22,29.23,18.17,46.34,22ZM365,239.41c6.95,0,11.66-1.08,11.74-9.84.08-8.33-3.6-10.47-11.06-10.45q-76.16.21-152.32,0c-6.9,0-11,1.92-11.07,9.79-.05,8,3.68,10.59,11.26,10.52,25.24-.24,50.48-.09,75.72-.09S339.75,239.27,365,239.41ZM214.58,165.29c-7.34-.06-12.52,1-12.32,10.21.18,8.47,4.79,9.92,11.9,9.91q75.45-.21,150.88,0c7,0,11.57-1.25,11.7-9.94s-4-10.21-11.28-10.16c-25.29.2-50.59.08-75.88.08C264.58,165.37,239.58,165.49,214.58,165.29Zm72.25-40.76c7.4.2,9.44-3.48,9.43-10.23,0-6.59-2.45-9.58-9.2-9.53q-30.92.23-61.84,0c-6.6-.05-9.45,2.59-9.46,9.31,0,6.56,1.67,10.63,9.23,10.45,10.44-.25,20.9-.06,31.35-.06C266.51,124.46,276.67,124.26,286.83,124.53Zm51.53,264.22c2.4,6.88,8.57,10,16,9.54,7.14-.4,12.16-4.31,14.41-10.76,2.35-6.73,1.28-13.65-4.71-18.13-12.71-9.49-25.84-18.43-40.78-29C328.73,358.05,333.07,373.57,338.36,388.75ZM179.16,239.4c7.28.21,9.53-3.56,9.54-10.27,0-6.3-2-10-8.86-9.94-14.19.09-28.39,0-42.59,0-6.8,0-8.81,3.81-8.76,10.11s2.18,10,8.95,10c7,0,13.91,0,20.86,0S172.21,239.2,179.16,239.4Zm1.72-54.12c6.67-.13,7.71-4.65,7.78-10.14.07-5.66-1.22-9.76-8-9.74q-21.7.06-43.41,0c-6.87,0-8.84,3.67-8.78,10s2.21,10,9,10c6.94,0,13.89,0,20.84,0C165.83,185.31,173.36,185.42,180.88,185.28Z" transform="translate(-74.53 -44)"/></svg>