<?xml version="1.0" encoding="utf-8"?>
<!-- Generator: Adobe Illustrator 16.0.0, SVG Export Plug-In . SVG Version: 6.00 Build 0)  -->
<!DOCTYPE svg PUBLIC "-//W3C//DTD SVG 1.1//EN" "http://www.w3.org/Graphics/SVG/1.1/DTD/svg11.dtd">
<svg version="1.1" id="Ebene_1" xmlns="http://www.w3.org/2000/svg" xmlns:xlink="http://www.w3.org/1999/xlink" x="0px" y="0px"
	 width="306.37px" height="247.92px" viewBox="0 0 306.37 247.92" enable-background="new 0 0 306.37 247.92" xml:space="preserve">
<g>
	<line fill="none" stroke="#CC1417" stroke-width="2" stroke-miterlimit="10" x1="272.291" y1="61.292" x2="272.291" y2="231.37"/>
	<line fill="none" stroke="#2D509F" stroke-width="2" stroke-miterlimit="10" x1="256.5" y1="57.292" x2="256.5" y2="199.023"/>
	<line fill="none" stroke="#CDCCCC" stroke-width="2" stroke-miterlimit="10" x1="214.217" y1="66.732" x2="214.217" y2="137.599"/>
	<line fill="none" stroke="#CDCCCC" stroke-width="2" stroke-miterlimit="10" x1="207.129" y1="66.732" x2="207.129" y2="137.599"/>
	<line fill="none" stroke="#676767" stroke-width="2" stroke-miterlimit="10" x1="177.365" y1="66.732" x2="177.365" y2="137.599"/>
	<line fill="none" stroke="#676767" stroke-width="2" stroke-miterlimit="10" x1="170.279" y1="66.732" x2="170.279" y2="137.599"/>
	<line fill="none" stroke="#62388E" stroke-width="2" stroke-miterlimit="10" x1="140.516" y1="66.732" x2="140.516" y2="137.599"/>
	<line fill="none" stroke="#62388E" stroke-width="2" stroke-miterlimit="10" x1="133.429" y1="66.732" x2="133.429" y2="137.599"/>
	<line fill="none" stroke="#08672F" stroke-width="2" stroke-miterlimit="10" x1="103.665" y1="66.732" x2="103.665" y2="137.599"/>
	<line fill="none" stroke="#08672F" stroke-width="2" stroke-miterlimit="10" x1="96.578" y1="66.732" x2="96.578" y2="137.599"/>
	<g>
		<g>
			<path fill="#08672F" d="M91.883,144.946l0.013-7.613c0-0.335,0.271-0.604,0.605-0.604l15.311,0.024
				c0.334,0,0.604,0.271,0.603,0.605l-0.012,7.615c0,0.334-0.271,0.604-0.605,0.604l-15.312-0.024
				C92.153,145.552,91.883,145.281,91.883,144.946z M93.104,137.939l-0.011,6.404l14.102,0.022l0.01-6.404L93.104,137.939z"/>
		</g>
		<g>
			<path fill="#08672F" d="M84.531,158.617c0-0.099,0.023-0.196,0.072-0.285l7.352-13.671c0.106-0.196,0.311-0.318,0.534-0.318
				l15.312,0.025c0.222,0,0.427,0.123,0.532,0.319l7.31,13.693c0.099,0.188,0.093,0.414-0.016,0.597
				c-0.111,0.183-0.307,0.294-0.52,0.294l-29.971-0.049c-0.213,0-0.411-0.111-0.519-0.294
				C84.56,158.832,84.531,158.725,84.531,158.617z M92.849,145.554l-6.702,12.462l27.95,0.045l-6.662-12.483L92.849,145.554z"/>
		</g>
	</g>
	<rect x="79.281" y="162.174" fill="none" width="41.682" height="38.547"/>
	<text transform="matrix(1 0 0 1 85.9819 169.2734)"><tspan x="0" y="0" fill="#08672F" font-family="'MyriadPro-Regular'" font-size="10">Hinten</tspan><tspan x="3.511" y="12" fill="#08672F" font-family="'MyriadPro-Regular'" font-size="10">Links</tspan></text>
	<line fill="none" stroke="#010202" stroke-width="2" stroke-miterlimit="10" x1="41.004" y1="61.292" x2="41.004" y2="203.023"/>
	<line fill="none" stroke="#010202" stroke-width="2" stroke-miterlimit="10" x1="25.212" y1="57.292" x2="25.212" y2="227.37"/>
	<rect x="11.04" y="22.5" fill="#FFFFFF" stroke="#000000" stroke-miterlimit="10" width="283.464" height="44.232"/>
	<g>
		<g>
			<path fill="#62388E" d="M128.733,144.946l0.013-7.613c0-0.335,0.271-0.604,0.605-0.604l15.311,0.024
				c0.334,0,0.604,0.271,0.603,0.605l-0.012,7.615c0,0.334-0.271,0.604-0.605,0.604l-15.312-0.024
				C129.003,145.552,128.733,145.281,128.733,144.946z M129.955,137.939l-0.011,6.404l14.102,0.022l0.01-6.404L129.955,137.939z"/>
		</g>
		<g>
			<path fill="#62388E" d="M121.381,158.617c0-0.099,0.023-0.196,0.072-0.285l7.352-13.671c0.106-0.196,0.311-0.318,0.534-0.318
				l15.312,0.025c0.222,0,0.427,0.123,0.532,0.319l7.31,13.693c0.099,0.188,0.093,0.414-0.016,0.597
				c-0.111,0.183-0.307,0.294-0.52,0.294l-29.971-0.049c-0.213,0-0.411-0.111-0.519-0.294
				C121.41,158.832,121.381,158.725,121.381,158.617z M129.699,145.554l-6.702,12.462l27.95,0.045l-6.662-12.483L129.699,145.554z"
				/>
		</g>
	</g>
	<g>
		<g>
			<path fill="#676767" d="M165.584,144.946l0.013-7.613c0-0.335,0.271-0.604,0.605-0.604l15.312,0.024
				c0.334,0,0.604,0.271,0.603,0.605l-0.013,7.615c0,0.334-0.271,0.604-0.604,0.604l-15.312-0.024
				C165.854,145.552,165.584,145.281,165.584,144.946z M166.805,137.939l-0.01,6.404l14.102,0.022l0.01-6.404L166.805,137.939z"/>
		</g>
		<g>
			<path fill="#676767" d="M158.232,158.617c0-0.099,0.023-0.196,0.071-0.285l7.353-13.671c0.105-0.196,0.311-0.318,0.533-0.318
				l15.313,0.025c0.222,0,0.427,0.123,0.531,0.319l7.31,13.693c0.099,0.188,0.093,0.414-0.016,0.597
				c-0.11,0.183-0.307,0.294-0.52,0.294l-29.972-0.049c-0.213,0-0.41-0.111-0.518-0.294
				C158.261,158.832,158.232,158.725,158.232,158.617z M166.55,145.554l-6.702,12.462l27.951,0.045l-6.662-12.483L166.55,145.554z"
				/>
		</g>
	</g>
	<g>
		<g>
			<path fill="#CDCCCC" d="M202.435,144.946l0.013-7.613c0-0.335,0.271-0.604,0.605-0.604l15.312,0.024
				c0.334,0,0.604,0.271,0.603,0.605l-0.013,7.615c0,0.334-0.271,0.604-0.604,0.604l-15.312-0.024
				C202.704,145.552,202.435,145.281,202.435,144.946z M203.656,137.939l-0.012,6.404l14.103,0.022l0.01-6.404L203.656,137.939z"/>
		</g>
		<g>
			<path fill="#CDCCCC" d="M195.082,158.617c0-0.099,0.023-0.196,0.072-0.285l7.352-13.671c0.106-0.196,0.311-0.318,0.535-0.318
				l15.312,0.025c0.222,0,0.427,0.123,0.531,0.319l7.309,13.693c0.099,0.188,0.093,0.414-0.016,0.597
				c-0.11,0.183-0.307,0.294-0.52,0.294l-29.97-0.049c-0.213,0-0.411-0.111-0.52-0.294
				C195.111,158.832,195.082,158.725,195.082,158.617z M203.4,145.554l-6.701,12.462l27.949,0.045l-6.661-12.483L203.4,145.554z"/>
		</g>
	</g>
	<rect x="116.159" y="162.174" fill="none" width="41.682" height="38.547"/>
	<text transform="matrix(1 0 0 1 122.8599 169.2734)"><tspan x="0" y="0" fill="#62388E" font-family="'MyriadPro-Regular'" font-size="10">Hinten</tspan><tspan x="0.295" y="12" fill="#62388E" font-family="'MyriadPro-Regular'" font-size="10">Rechts</tspan></text>
	<rect x="153.009" y="162.174" fill="none" width="41.683" height="38.547"/>
	<text transform="matrix(1 0 0 1 161.4004 169.2734)"><tspan x="0" y="0" fill="#676767" font-family="'MyriadPro-Regular'" font-size="10">Vorne</tspan><tspan x="1.82" y="12" fill="#676767" font-family="'MyriadPro-Regular'" font-size="10">Links</tspan></text>
	<rect x="189.859" y="162.174" fill="none" width="41.683" height="38.547"/>
	<text transform="matrix(1 0 0 1 198.252 169.2734)"><tspan x="0" y="0" fill="#CDCCCC" font-family="'MyriadPro-Regular'" font-size="10">Vorne</tspan><tspan x="-1.396" y="12" fill="#CDCCCC" font-family="'MyriadPro-Regular'" font-size="10">Rechts</tspan></text>
	
		<rect x="0.022" y="8.5" transform="matrix(0.9986 -0.0538 0.0538 0.9986 -0.8947 8.2446)" fill="#FFFFFF" stroke="#FFFFFF" stroke-miterlimit="10" width="305.5" height="24.5"/>
	<g>
		<path fill="#CC1417" d="M284.129,231.83l-5.467-3.736h-0.031v3.418h-0.729v-4.549h0.529l5.447,3.719h0.029v-3.768h0.73v4.916
			H284.129z"/>
		<path fill="#CC1417" d="M283.318,221.893c0.5,0,0.939-0.01,1.32-0.039v0.779l-0.79,0.049v0.02c0.39,0.23,0.899,0.74,0.899,1.6
			c0,0.76-0.42,1.67-2.119,1.67h-2.828v-0.881h2.679c0.919,0,1.539-0.279,1.539-1.078c0-0.59-0.409-1-0.8-1.16
			c-0.13-0.049-0.289-0.08-0.449-0.08h-2.969v-0.879H283.318z M278.432,225.32c-0.279,0-0.51-0.23-0.51-0.51s0.22-0.49,0.51-0.49
			c0.27,0,0.51,0.201,0.51,0.49C278.941,225.111,278.701,225.32,278.432,225.32z M278.432,223.461c-0.279,0-0.51-0.219-0.51-0.498
			c0-0.281,0.22-0.49,0.51-0.49c0.27,0,0.51,0.199,0.51,0.49C278.941,223.262,278.701,223.461,278.432,223.461z"/>
		<path fill="#CC1417" d="M281.11,220.432c-0.5,0-0.909,0.01-1.31,0.039v-0.779l0.8-0.051v-0.02c-0.46-0.24-0.909-0.799-0.909-1.6
			c0-0.668,0.399-1.709,2.059-1.709h2.889v0.881h-2.789c-0.779,0-1.43,0.289-1.43,1.119c0,0.58,0.41,1.029,0.9,1.18
			c0.109,0.039,0.26,0.059,0.41,0.059h2.908v0.881H281.11z"/>
		<path fill="#CC1417" d="M277.542,210.703h5.847c0.43,0,0.92-0.01,1.25-0.039v0.789l-0.84,0.039v0.021
			c0.539,0.27,0.949,0.859,0.949,1.648c0,1.17-0.989,2.068-2.459,2.068c-1.609,0.01-2.598-0.988-2.598-2.168
			c0-0.74,0.35-1.24,0.739-1.459v-0.02h-2.889V210.703z M281.77,211.584c-0.109,0-0.26,0.01-0.369,0.039
			c-0.561,0.131-1.02,0.609-1.02,1.27c0,0.91,0.799,1.449,1.869,1.449c0.979,0,1.789-0.48,1.789-1.43c0-0.59-0.391-1.129-1.05-1.289
			c-0.12-0.029-0.24-0.039-0.38-0.039H281.77z"/>
		<path fill="#CC1417" d="M283.318,205.193c0.5,0,0.939-0.01,1.32-0.039v0.779l-0.79,0.049v0.021
			c0.39,0.229,0.899,0.738,0.899,1.598c0,0.76-0.42,1.67-2.119,1.67h-2.828v-0.879h2.679c0.919,0,1.539-0.281,1.539-1.08
			c0-0.59-0.409-1-0.8-1.16c-0.13-0.049-0.289-0.078-0.449-0.078h-2.969v-0.881H283.318z"/>
		<path fill="#CC1417" d="M281.11,203.732c-0.5,0-0.909,0.01-1.31,0.039v-0.779l0.8-0.051v-0.02c-0.46-0.24-0.909-0.799-0.909-1.6
			c0-0.668,0.399-1.709,2.059-1.709h2.889v0.881h-2.789c-0.779,0-1.43,0.289-1.43,1.119c0,0.58,0.41,1.029,0.9,1.18
			c0.109,0.039,0.26,0.059,0.41,0.059h2.908v0.881H281.11z"/>
		<path fill="#CC1417" d="M279.801,194.014c0.35,0.021,0.74,0.041,1.329,0.041h2.809c1.109,0,1.789,0.219,2.209,0.689
			c0.439,0.469,0.579,1.148,0.579,1.76c0,0.578-0.14,1.219-0.399,1.607l-0.669-0.219c0.199-0.32,0.379-0.82,0.379-1.42
			c0-0.898-0.469-1.559-1.689-1.559h-0.539v0.02c0.449,0.27,0.81,0.789,0.81,1.539c0,1.199-1.02,2.059-2.358,2.059
			c-1.639,0-2.568-1.068-2.568-2.178c0-0.84,0.439-1.299,0.839-1.51v-0.02l-0.729-0.041V194.014z M281.71,194.924
			c-0.149,0-0.28,0.01-0.399,0.051c-0.51,0.158-0.93,0.588-0.93,1.229c0,0.84,0.709,1.439,1.828,1.439c0.95,0,1.74-0.48,1.74-1.43
			c0-0.539-0.34-1.029-0.9-1.219c-0.15-0.051-0.32-0.07-0.47-0.07H281.71z"/>
		<path fill="#CC1417" d="M283.738,192.713c0.17-0.26,0.35-0.721,0.35-1.16c0-0.639-0.319-0.939-0.719-0.939
			c-0.42,0-0.65,0.25-0.89,0.9c-0.31,0.869-0.79,1.279-1.369,1.279c-0.78,0-1.419-0.631-1.419-1.67c0-0.49,0.14-0.92,0.299-1.189
			l0.641,0.221c-0.121,0.189-0.28,0.539-0.28,0.988c0,0.52,0.3,0.811,0.659,0.811c0.4,0,0.58-0.291,0.82-0.92
			c0.319-0.84,0.739-1.27,1.459-1.27c0.85,0,1.449,0.66,1.449,1.809c0,0.529-0.13,1.02-0.33,1.359L283.738,192.713z"/>
		<path fill="#CC1417" d="M281.38,188.633c-0.62,0-1.119,0.02-1.579,0.039v-0.789l0.83-0.041v-0.02
			c-0.59-0.359-0.939-0.93-0.939-1.719c0-1.17,0.988-2.049,2.458-2.049c1.739,0,2.599,1.059,2.599,2.199
			c0,0.639-0.279,1.199-0.76,1.488v0.02h2.629v0.871H281.38z M282.67,187.762c0.129,0,0.249-0.02,0.359-0.039
			c0.609-0.16,1.029-0.689,1.029-1.318c0-0.93-0.76-1.471-1.869-1.471c-0.969,0-1.799,0.51-1.799,1.439c0,0.6,0.43,1.16,1.09,1.33
			c0.109,0.029,0.239,0.059,0.359,0.059H282.67z"/>
		<path fill="#CC1417" d="M277.542,182.943v-0.881h7.097v0.881H277.542z"/>
		<path fill="#CC1417" d="M283.318,176.535c0.5,0,0.939-0.01,1.32-0.041v0.779l-0.79,0.051v0.02c0.39,0.23,0.899,0.74,0.899,1.6
			c0,0.76-0.42,1.67-2.119,1.67h-2.828v-0.881h2.679c0.919,0,1.539-0.279,1.539-1.078c0-0.59-0.409-1-0.8-1.16
			c-0.13-0.051-0.289-0.08-0.449-0.08h-2.969v-0.879H283.318z"/>
		<path fill="#CC1417" d="M283.738,175.193c0.17-0.26,0.35-0.721,0.35-1.16c0-0.639-0.319-0.939-0.719-0.939
			c-0.42,0-0.65,0.25-0.89,0.9c-0.31,0.869-0.79,1.279-1.369,1.279c-0.78,0-1.419-0.631-1.419-1.67c0-0.49,0.14-0.92,0.299-1.189
			l0.641,0.221c-0.121,0.189-0.28,0.539-0.28,0.988c0,0.52,0.3,0.811,0.659,0.811c0.4,0,0.58-0.291,0.82-0.92
			c0.319-0.84,0.739-1.27,1.459-1.27c0.85,0,1.449,0.66,1.449,1.809c0,0.529-0.13,1.02-0.33,1.359L283.738,175.193z"/>
	</g>
	<g>
		<path fill="#2D509F" d="M249.644,199.168l-5.467-3.738h-0.03v3.418h-0.729v-4.547h0.529l5.447,3.718h0.03v-3.768h0.729v4.917
			H249.644z"/>
		<path fill="#2D509F" d="M248.834,189.23c0.5,0,0.939-0.01,1.319-0.04v0.779l-0.79,0.05v0.021c0.39,0.229,0.899,0.739,0.899,1.599
			c0,0.76-0.42,1.67-2.118,1.67h-2.829v-0.88h2.679c0.92,0,1.539-0.28,1.539-1.079c0-0.59-0.409-1-0.8-1.16
			c-0.13-0.05-0.289-0.079-0.449-0.079h-2.969v-0.88H248.834z"/>
		<path fill="#2D509F" d="M250.153,187.809c-0.33-0.021-0.819-0.04-1.25-0.04h-5.847v-0.87h3.039v-0.02
			c-0.54-0.31-0.89-0.869-0.89-1.649c0-1.199,0.999-2.049,2.469-2.038c1.729,0,2.588,1.089,2.588,2.168c0,0.7-0.27,1.26-0.909,1.619
			v0.03l0.8,0.04V187.809z M248.214,186.898c0.11,0,0.22-0.02,0.32-0.039c0.609-0.17,1.029-0.68,1.029-1.319
			c0-0.92-0.75-1.47-1.859-1.47c-0.969,0-1.799,0.5-1.799,1.439c0,0.6,0.41,1.159,1.079,1.339c0.101,0.021,0.221,0.05,0.36,0.05
			H248.214z"/>
		<path fill="#2D509F" d="M247.895,181.589c1.189-0.02,1.679-0.779,1.679-1.659c0-0.629-0.109-1.009-0.25-1.339l0.63-0.149
			c0.14,0.31,0.3,0.839,0.3,1.608c0,1.489-0.979,2.379-2.438,2.379s-2.608-0.859-2.608-2.269c0-1.579,1.389-1.999,2.278-1.999
			c0.18,0,0.32,0.02,0.41,0.03V181.589z M247.265,179.011c-0.56-0.01-1.43,0.229-1.43,1.22c0,0.889,0.82,1.279,1.43,1.349V179.011z"
			/>
		<path fill="#2D509F" d="M243.057,177.069v-0.881h3.019v-0.02c-0.25-0.139-0.47-0.359-0.619-0.629c-0.15-0.26-0.25-0.57-0.25-0.9
			c0-0.648,0.399-1.689,2.068-1.689h2.879v0.881h-2.778c-0.78,0-1.439,0.289-1.439,1.119c0,0.57,0.399,1.02,0.879,1.18
			c0.12,0.049,0.25,0.059,0.42,0.059h2.919v0.881H243.057z"/>
		<path fill="#2D509F" d="M247.694,167.142c1.789,0,2.568,1.238,2.568,2.408c0,1.309-0.959,2.318-2.488,2.318
			c-1.619,0-2.568-1.059-2.568-2.398C245.206,168.081,246.215,167.142,247.694,167.142z M247.744,170.979
			c1.06,0,1.859-0.609,1.859-1.469c0-0.84-0.79-1.471-1.879-1.471c-0.819,0-1.859,0.41-1.859,1.449
			C245.865,170.53,246.825,170.979,247.744,170.979z M243.946,170.938c-0.279,0-0.51-0.229-0.51-0.51c0-0.279,0.22-0.488,0.51-0.488
			c0.271,0,0.51,0.199,0.51,0.488C244.456,170.729,244.217,170.938,243.946,170.938z M243.946,169.081c-0.279,0-0.51-0.221-0.51-0.5
			c0-0.281,0.22-0.49,0.51-0.49c0.271,0,0.51,0.199,0.51,0.49C244.456,168.88,244.217,169.081,243.946,169.081z"/>
		<path fill="#2D509F" d="M246.825,166.028c-0.57,0-1.06,0.01-1.51,0.041v-0.77l0.95-0.031v-0.039c-0.65-0.221-1.06-0.75-1.06-1.34
			c0-0.1,0.01-0.17,0.029-0.25h0.83c-0.021,0.09-0.03,0.18-0.03,0.301c0,0.619,0.47,1.059,1.13,1.18
			c0.119,0.02,0.26,0.039,0.409,0.039h2.579v0.869H246.825z"/>
		<path fill="#2D509F" d="M246.895,162.72c-0.619,0-1.119,0.02-1.579,0.039v-0.789l0.83-0.041v-0.02
			c-0.59-0.359-0.939-0.93-0.939-1.719c0-1.17,0.989-2.049,2.458-2.049c1.739,0,2.599,1.059,2.599,2.199
			c0,0.639-0.279,1.199-0.759,1.488v0.02h2.628v0.871H246.895z M248.185,161.849c0.13,0,0.249-0.02,0.359-0.039
			c0.609-0.16,1.029-0.689,1.029-1.318c0-0.93-0.76-1.471-1.869-1.471c-0.969,0-1.799,0.51-1.799,1.439c0,0.6,0.43,1.16,1.09,1.33
			c0.109,0.029,0.239,0.059,0.359,0.059H248.185z"/>
		<path fill="#2D509F" d="M243.057,157.03v-0.881h7.097v0.881H243.057z"/>
		<path fill="#2D509F" d="M248.834,150.622c0.5,0,0.939-0.01,1.319-0.041v0.779l-0.79,0.051v0.02c0.39,0.23,0.899,0.74,0.899,1.6
			c0,0.76-0.42,1.67-2.118,1.67h-2.829v-0.881h2.679c0.92,0,1.539-0.279,1.539-1.078c0-0.59-0.409-1-0.8-1.16
			c-0.13-0.051-0.289-0.08-0.449-0.08h-2.969v-0.879H248.834z"/>
		<path fill="#2D509F" d="M249.254,149.28c0.17-0.26,0.35-0.721,0.35-1.16c0-0.639-0.32-0.939-0.72-0.939
			c-0.42,0-0.649,0.25-0.89,0.9c-0.31,0.869-0.789,1.279-1.369,1.279c-0.779,0-1.419-0.631-1.419-1.67c0-0.49,0.14-0.92,0.3-1.189
			l0.64,0.221c-0.12,0.189-0.28,0.539-0.28,0.988c0,0.52,0.3,0.811,0.66,0.811c0.399,0,0.579-0.291,0.819-0.92
			c0.319-0.84,0.739-1.27,1.459-1.27c0.85,0,1.449,0.66,1.449,1.809c0,0.529-0.13,1.02-0.33,1.359L249.254,149.28z"/>
	</g>
	<rect x="84.531" y="193.674" fill="none" width="142.302" height="38.547"/>
	<text transform="matrix(1 0 0 1 121.8071 200.7744)" fill="#010202" font-family="'MyriadPro-Regular'" font-size="10">je 45 Watt @ 4 Ω</text>
	<g>
		<g>
			<g>
				<g>
					<rect x="206.216" y="67.846" fill="#010202" width="1.777" height="6.798"/>
					<rect x="206.216" y="77.97" fill="#010202" width="1.777" height="6.798"/>
					<rect x="206.216" y="88.093" fill="#010202" width="1.777" height="6.798"/>
					<rect x="206.216" y="98.218" fill="#010202" width="1.777" height="6.796"/>
					<rect x="206.216" y="108.341" fill="#010202" width="1.777" height="6.797"/>
					<rect x="206.216" y="118.466" fill="#010202" width="1.777" height="6.797"/>
					<rect x="206.216" y="128.589" fill="#010202" width="1.777" height="6.796"/>
				</g>
			</g>
		</g>
	</g>
	<g>
		<g>
			<g>
				<g>
					<rect x="169.366" y="66.732" fill="#010202" width="1.777" height="6.798"/>
					<rect x="169.366" y="76.856" fill="#010202" width="1.777" height="6.798"/>
					<rect x="169.366" y="86.979" fill="#010202" width="1.777" height="6.798"/>
					<rect x="169.366" y="97.104" fill="#010202" width="1.777" height="6.796"/>
					<rect x="169.366" y="107.227" fill="#010202" width="1.777" height="6.798"/>
					<rect x="169.366" y="117.353" fill="#010202" width="1.777" height="6.797"/>
					<rect x="169.366" y="127.475" fill="#010202" width="1.777" height="6.796"/>
				</g>
			</g>
		</g>
	</g>
	<g>
		<g>
			<g>
				<g>
					<rect x="132.516" y="66.732" fill="#010202" width="1.777" height="6.798"/>
					<rect x="132.516" y="76.856" fill="#010202" width="1.777" height="6.798"/>
					<rect x="132.516" y="86.979" fill="#010202" width="1.777" height="6.798"/>
					<rect x="132.516" y="97.104" fill="#010202" width="1.777" height="6.796"/>
					<rect x="132.516" y="107.227" fill="#010202" width="1.777" height="6.798"/>
					<rect x="132.516" y="117.353" fill="#010202" width="1.777" height="6.797"/>
					<rect x="132.516" y="127.475" fill="#010202" width="1.777" height="6.796"/>
				</g>
			</g>
		</g>
	</g>
	<g>
		<g>
			<g>
				<g>
					<rect x="95.665" y="67.846" fill="#010202" width="1.777" height="6.798"/>
					<rect x="95.665" y="77.97" fill="#010202" width="1.777" height="6.798"/>
					<rect x="95.665" y="88.093" fill="#010202" width="1.777" height="6.798"/>
					<rect x="95.665" y="98.218" fill="#010202" width="1.777" height="6.796"/>
					<rect x="95.665" y="108.341" fill="#010202" width="1.777" height="6.797"/>
					<rect x="95.665" y="118.466" fill="#010202" width="1.777" height="6.797"/>
					<rect x="95.665" y="128.589" fill="#010202" width="1.777" height="6.796"/>
				</g>
			</g>
		</g>
	</g>
	<g>
		<path fill="#010202" d="M16.656,200.236c-0.939,0.05-2.069,0.11-2.908,0.1v0.03c0.789,0.229,1.629,0.51,2.559,0.85l3.268,1.189
			v0.659l-3.208,1.09c-0.95,0.319-1.819,0.59-2.618,0.779v0.021c0.839,0.02,1.969,0.069,2.979,0.13l2.888,0.18v0.829l-6.736-0.47
			v-1.109l3.259-1.149c0.829-0.279,1.568-0.51,2.268-0.68v-0.029c-0.68-0.17-1.418-0.41-2.268-0.71l-3.259-1.199v-1.109l6.736-0.42
			v0.85L16.656,200.236z"/>
		<path fill="#010202" d="M13.417,196.804c0.299-0.01,0.539,0.21,0.539,0.56c0,0.31-0.24,0.529-0.539,0.529
			c-0.311,0-0.55-0.229-0.55-0.549C12.868,197.014,13.107,196.804,13.417,196.804z M19.614,197.783h-4.837v-0.88h4.837V197.783z"/>
		<path fill="#010202" d="M16.996,194.574v-0.021c-0.17-0.12-0.381-0.29-0.551-0.43l-1.668-1.419v-1.06l1.988,1.869l2.849-2.129
			v1.069l-2.319,1.669l0.5,0.45h1.819v0.869h-7.097v-0.869H16.996z"/>
		<path fill="#010202" d="M16.286,190.584c-0.569,0-1.06,0.01-1.509,0.04v-0.77l0.949-0.03v-0.04c-0.65-0.22-1.06-0.749-1.06-1.339
			c0-0.101,0.01-0.17,0.03-0.25h0.829c-0.021,0.09-0.03,0.18-0.03,0.3c0,0.619,0.471,1.06,1.13,1.18c0.12,0.02,0.26,0.04,0.409,0.04
			h2.579v0.869H16.286z"/>
		<path fill="#010202" d="M17.156,183.036c1.789,0,2.568,1.239,2.568,2.409c0,1.309-0.96,2.318-2.489,2.318
			c-1.619,0-2.568-1.06-2.568-2.398C14.667,183.976,15.675,183.036,17.156,183.036z M17.205,186.874
			c1.061,0,1.859-0.609,1.859-1.469c0-0.84-0.789-1.47-1.879-1.47c-0.819,0-1.859,0.41-1.859,1.449
			C15.326,186.425,16.286,186.874,17.205,186.874z"/>
		<path fill="#010202" d="M19.614,181.834h-4.167v0.68h-0.67v-0.68h-0.23c-0.68,0-1.299-0.15-1.689-0.56
			c-0.319-0.33-0.449-0.77-0.449-1.18c0-0.31,0.07-0.581,0.141-0.751l0.679,0.121c-0.06,0.129-0.11,0.311-0.11,0.56
			c0,0.75,0.66,0.939,1.4,0.939h0.26v-1.169h0.67v1.169h4.167V181.834z"/>
		<path fill="#010202" d="M17.156,174.756c1.789,0,2.568,1.238,2.568,2.408c0,1.309-0.96,2.318-2.489,2.318
			c-1.619,0-2.568-1.059-2.568-2.398C14.667,175.695,15.675,174.756,17.156,174.756z M17.205,178.594
			c1.061,0,1.859-0.609,1.859-1.469c0-0.84-0.789-1.471-1.879-1.471c-0.819,0-1.859,0.41-1.859,1.449
			C15.326,178.145,16.286,178.594,17.205,178.594z"/>
		<path fill="#010202" d="M16.085,173.643c-0.5,0-0.909,0.01-1.309,0.041v-0.779l0.799-0.051v-0.02
			c-0.459-0.24-0.909-0.801-0.909-1.6c0-0.67,0.399-1.709,2.06-1.709h2.888v0.879h-2.788c-0.779,0-1.43,0.291-1.43,1.119
			c0,0.58,0.41,1.029,0.899,1.18c0.11,0.041,0.261,0.061,0.41,0.061h2.908v0.879H16.085z"/>
	</g>
	<g>
		<path fill="#010202" d="M45.485,182.535c-0.079-0.529-0.14-1.16-0.14-1.85c0-1.248,0.289-2.139,0.84-2.729
			c0.549-0.6,1.328-0.949,2.418-0.949c1.1,0,1.999,0.34,2.619,0.969c0.629,0.631,0.969,1.67,0.969,2.979
			c0,0.621-0.029,1.141-0.08,1.58H45.485z M51.442,181.666c0.04-0.221,0.05-0.541,0.05-0.881c0-1.857-1.039-2.867-2.858-2.867
			c-1.589-0.01-2.599,0.889-2.599,2.729c0,0.449,0.04,0.789,0.09,1.02H51.442z"/>
		<path fill="#010202" d="M48.804,175.904c-0.569,0-1.06,0.01-1.509,0.041v-0.77l0.949-0.031v-0.039
			c-0.65-0.221-1.06-0.75-1.06-1.34c0-0.1,0.01-0.17,0.03-0.25h0.829c-0.021,0.09-0.03,0.18-0.03,0.301
			c0,0.619,0.471,1.059,1.13,1.18c0.12,0.02,0.26,0.039,0.409,0.039h2.579v0.869H48.804z"/>
		<path fill="#010202" d="M50.813,168.588c0.5,0,0.939-0.01,1.319-0.041v0.779l-0.79,0.051v0.02c0.391,0.23,0.9,0.74,0.9,1.6
			c0,0.76-0.42,1.67-2.119,1.67h-2.828v-0.881h2.678c0.92,0,1.539-0.279,1.539-1.078c0-0.59-0.409-1-0.799-1.16
			c-0.131-0.051-0.29-0.08-0.45-0.08h-2.968v-0.879H50.813z"/>
		<path fill="#010202" d="M51.952,163.678c0.12,0.229,0.28,0.738,0.28,1.389c0,1.459-0.99,2.408-2.469,2.408
			c-1.49,0-2.569-1.02-2.569-2.598c0-0.52,0.13-0.98,0.25-1.219l0.68,0.199c-0.12,0.209-0.229,0.539-0.229,1.02
			c0,1.109,0.819,1.709,1.828,1.709c1.12,0,1.81-0.721,1.81-1.68c0-0.5-0.13-0.83-0.239-1.078L51.952,163.678z"/>
		<path fill="#010202" d="M49.514,161.775v-0.02c-0.17-0.121-0.381-0.291-0.551-0.43l-1.668-1.42v-1.059l1.988,1.869l2.849-2.129
			v1.068l-2.319,1.67l0.5,0.449h1.819v0.869h-7.097v-0.869H49.514z"/>
		<path fill="#010202" d="M49.514,156.916v-0.02c-0.17-0.121-0.381-0.291-0.551-0.43l-1.668-1.42v-1.059l1.988,1.869l2.849-2.129
			v1.068l-2.319,1.67l0.5,0.449h1.819v0.869h-7.097v-0.869H49.514z"/>
		<path fill="#010202" d="M48.604,152.926c-0.5,0-0.909,0.01-1.309,0.041v-0.779l0.799-0.051v-0.02
			c-0.459-0.24-0.909-0.801-0.909-1.6c0-0.67,0.399-1.709,2.06-1.709h2.888v0.879h-2.788c-0.779,0-1.43,0.291-1.43,1.119
			c0,0.58,0.41,1.029,0.899,1.18c0.11,0.041,0.261,0.061,0.41,0.061h2.908v0.879H48.604z"/>
		<path fill="#010202" d="M49.674,142.998c1.789,0,2.568,1.24,2.568,2.41c0,1.309-0.96,2.318-2.489,2.318
			c-1.619,0-2.568-1.061-2.568-2.398C47.185,143.938,48.193,142.998,49.674,142.998z M49.723,146.836
			c1.061,0,1.859-0.609,1.859-1.469c0-0.84-0.789-1.469-1.879-1.469c-0.819,0-1.859,0.41-1.859,1.449S48.804,146.836,49.723,146.836
			z"/>
		<path fill="#010202" d="M48.873,141.886c-0.619,0-1.119,0.02-1.578,0.04v-0.79l0.829-0.04v-0.02
			c-0.59-0.36-0.939-0.93-0.939-1.719c0-1.17,0.989-2.049,2.458-2.049c1.74,0,2.6,1.059,2.6,2.198c0,0.64-0.28,1.199-0.76,1.489
			v0.021h2.629v0.869H48.873z M50.163,141.017c0.13,0,0.249-0.021,0.36-0.04c0.609-0.16,1.029-0.69,1.029-1.319
			c0-0.93-0.76-1.47-1.869-1.47c-0.97,0-1.799,0.51-1.799,1.439c0,0.6,0.43,1.159,1.089,1.329c0.11,0.03,0.239,0.061,0.36,0.061
			H50.163z"/>
		<path fill="#010202" d="M52.132,136.106h-4.167v0.68h-0.67v-0.68h-0.23c-0.68,0-1.299-0.15-1.689-0.56
			c-0.319-0.33-0.449-0.77-0.449-1.18c0-0.31,0.07-0.58,0.141-0.75l0.679,0.12c-0.06,0.13-0.11,0.311-0.11,0.56
			c0,0.75,0.66,0.939,1.4,0.939h0.26v-1.169h0.67v1.169h4.167V136.106z"/>
	</g>
	<g>
		<rect x="37.461" y="214.561" fill="#2764AE" width="7.087" height="2.268"/>
		<rect x="36.752" y="205.53" fill="#010202" width="8.504" height="8.504"/>
		<rect x="38.17" y="190.893" fill="#010202" width="5.669" height="16.107"/>
	</g>
	<line fill="none" stroke="#010202" stroke-width="2" stroke-miterlimit="10" x1="68.667" y1="66.732" x2="68.667" y2="93.333"/>
	<line fill="none" stroke="#010202" stroke-width="2" stroke-miterlimit="10" x1="58.747" y1="93.333" x2="78.589" y2="93.333"/>
	<line fill="none" stroke="#010202" stroke-width="2" stroke-miterlimit="10" x1="61.581" y1="96.977" x2="75.754" y2="96.977"/>
	<line fill="none" stroke="#010202" stroke-width="2" stroke-miterlimit="10" x1="64.416" y1="100.833" x2="72.92" y2="100.833"/>
	<g>
		<path fill="none" stroke="#010202" stroke-miterlimit="10" d="M18.551,231.057c0-2.917,2.983-5.279,6.662-5.279l0,0
			c3.679,0,6.661,2.362,6.661,5.279H18.551z"/>
		<path fill="#FFFFFF" d="M19.046,231.14c0-2.698,2.767-4.884,6.177-4.884l0,0c3.413,0,6.177,2.186,6.177,4.884v12.136
			c0,2.699-2.765,4.885-6.177,4.885l0,0c-3.41,0-6.177-2.186-6.177-4.885V231.14z"/>
		<path fill="#010202" d="M20.253,232.13c0-2.552,2.221-4.618,4.959-4.618l0,0c2.739,0,4.959,2.066,4.959,4.618v11.475
			c0,2.552-2.22,4.618-4.959,4.618l0,0c-2.738,0-4.959-2.066-4.959-4.618V232.13z"/>
		<line fill="none" stroke="#010202" stroke-miterlimit="10" x1="31.874" y1="231.057" x2="31.874" y2="238.812"/>
		<line fill="none" stroke="#010202" stroke-miterlimit="10" x1="18.551" y1="231.057" x2="18.551" y2="238.812"/>
	</g>
</g>
</svg>
