<svg width="300" height="123" viewBox="0 0 300 123" fill="none" xmlns="http://www.w3.org/2000/svg">
<path d="M2.96814 52.4817C2.78477 53.0357 2.05129 53.0358 1.2271 52.2979C0.402265 51.6525 -0.148491 50.6383 0.0355265 50.0849C1.77721 43.1701 7.09233 34.9647 13.5077 31.83C18.3647 29.5257 23.9552 30.4468 28.0794 34.1349C33.9446 39.3901 29.5457 53.1283 25.5128 65.851C22.3055 75.993 19.2815 85.4897 20.7478 86.5952C26.155 90.8361 47.2334 56.9996 47.3254 56.9077C47.6001 56.4468 48.5163 56.632 49.2498 57.4618C49.9833 58.1071 50.3494 59.0294 50.1666 59.5822C50.0746 59.9498 31.196 109.276 40.4519 113.887C41.3688 114.256 42.285 114.439 43.4759 114.256C47.9669 113.701 53.3733 108.908 59.0558 101.532C63.2714 95.9081 67.7623 88.8076 71.8859 81.0637L71.6118 80.6947C69.9621 78.4817 68.6792 75.5321 67.7623 71.7521C64.5543 57.0922 73.8103 27.4966 82.6087 11.2702C84.7172 7.39894 86.825 4.26357 88.7494 2.23504C90.8571 0.114596 92.9649 -0.62329 94.89 0.5761C96.8144 1.86675 98.1887 4.4487 98.7381 8.68959C100.296 22.2427 90.9485 51.1923 78.8513 75.8098C77.8431 77.9303 76.7429 79.9582 75.7353 81.9867C79.9509 84.3842 86.0915 82.3556 90.1237 80.3278C95.2554 77.6532 99.6543 73.8732 101.029 72.3068C101.305 71.9379 102.221 72.2136 102.954 73.0434C103.779 73.8726 104.054 74.7956 103.779 75.1645C102.404 76.8241 98.0053 81.5258 92.6902 84.2916C87.099 87.058 80.2262 87.8878 74.7271 83.8314C70.5116 91.6672 66.1126 98.7671 61.8051 104.391C55.9399 111.951 50.3487 116.93 45.4917 117.483C44.0254 117.667 42.4677 117.39 41.0928 116.653C31.6535 112.044 37.61 86.8736 42.6511 70.7391C35.5029 80.5116 25.2381 92.5896 20.3805 88.9021C15.6154 85.214 19.0055 74.703 22.5802 63.3629C26.3377 51.5619 30.4625 38.838 27.3459 36.0722C24.4133 33.3977 19.9224 34.4126 16.7144 35.9796C10.5751 38.9292 4.70982 45.844 2.96814 52.4817ZM72.9867 79.1271C73.9943 77.1911 75.0031 75.1632 75.9193 73.1347C88.0159 48.7942 97.2725 20.121 95.7148 6.93678C95.4394 4.44805 95.164 3.24866 94.89 3.15675C94.2485 2.69589 93.0563 3.52569 91.4066 5.18463C89.5742 7.02934 87.5584 10.1641 85.4507 13.9441C76.7435 29.894 67.5789 59.0288 70.7869 73.1347C71.337 75.716 72.0699 77.6519 72.9867 79.1271Z" fill="#272527"/>
<path d="M105.707 66.4958C106.074 66.1275 106.99 66.4958 107.723 67.233C108.456 68.0628 108.731 68.9851 108.456 69.446C101.491 77.4676 100.941 82.9998 101.583 83.5525C102.682 84.4749 109.74 79.957 114.688 71.5671L114.964 71.1988C115.33 70.8305 116.247 71.1062 116.979 71.9367C117.713 72.6739 118.079 73.6888 117.713 74.0565C117.713 74.0565 117.529 74.3342 117.071 74.7018C115.88 76.1776 109.006 85.95 115.88 82.6315C119.454 80.8793 123.67 77.4676 126.053 74.3342C126.419 73.872 126.785 72.951 127.61 73.7808C128.344 74.5173 127.886 75.0707 127.518 75.4397C125.044 78.6663 121.561 83.0004 117.896 84.7519C114.688 86.3189 110.655 85.5817 110.106 81.6172C101.033 89.453 93.6098 87.9779 98.6502 76.731C100.3 73.0416 103.324 69.0777 105.707 66.4958Z" fill="#272527"/>
<path d="M128.527 69.2622C128.802 68.8 129.719 68.9845 130.452 69.723C131.277 70.4603 131.643 71.4752 131.368 71.936L129.078 76.0837C134.027 71.936 139.434 67.879 141.45 68.4324H141.633C144.383 69.2622 144.841 71.0137 144.199 73.3186C143.924 74.3335 143.283 75.5316 142.642 76.9142C141.451 79.3116 140.076 81.9848 140.076 81.9848C143.009 83.9215 152.906 75.1627 152.998 75.1627C153.273 74.7937 154.281 73.5956 155.014 74.4248C155.839 75.1627 155.289 75.3465 154.922 75.808C154.922 75.808 144.932 87.7015 140.167 84.5668C136.042 81.8923 138.059 77.8365 139.801 74.2403C140.167 73.5031 140.534 72.7652 140.809 72.0273C135.585 74.7931 123.395 86.5021 123.029 86.8711C122.754 87.2394 121.929 86.9636 121.196 86.3176C120.463 85.4885 120.005 84.5655 120.28 84.1046L128.527 69.2622Z" fill="#272527"/>
<path d="M194.88 39.0212C194.055 38.1915 193.23 38.007 192.956 38.4672L191.031 41.4174C188.557 45.29 183.424 52.7582 175.91 61.794C172.611 65.7579 169.127 69.5386 165.737 72.7652C164.82 71.382 163.72 69.5386 160.147 69.6298C156.297 69.4454 152.357 74.516 150.524 77.5588C149.515 79.311 148.874 81.0625 148.782 82.4457C148.507 87.7015 153.731 87.2393 156.847 85.304C159.138 83.8289 162.071 81.5233 165.37 78.665L165.462 78.4805C166.104 78.8495 166.654 78.7582 166.746 78.2961C166.746 78.2048 166.837 77.8359 166.837 77.1905C168.579 75.6235 170.32 73.8707 172.061 72.0273C168.57 77.8189 165.082 83.692 161.882 89.2197C162.052 89.4256 162.208 89.6407 162.354 89.8643C162.758 89.9764 163.151 90.1003 163.507 90.2717C163.787 90.2294 164.059 90.1746 164.357 90.1563C164.659 90.0097 165.001 89.9106 165.338 89.8076C165.571 89.5371 165.832 89.2894 166.11 89.0573C176.154 72.2828 188.655 52.459 193.598 44.6447C195.064 42.4317 195.798 41.2336 195.798 41.2336C196.071 40.6802 195.613 39.7585 194.88 39.0212ZM162.712 75.7154C159.504 78.5738 156.572 80.878 154.281 82.2612C153.273 82.9066 152.448 83.3668 151.898 83.6444C152.081 82.7221 152.631 81.5233 153.364 80.2333C154.922 77.6514 158.589 73.1335 161.887 73.3186C163.079 73.3186 163.537 74.0558 163.72 74.7012L162.712 75.7154Z" fill="#272527"/>
<path d="M191.673 75.3465C187.366 77.5595 182.509 78.1129 182.234 78.1129C176.002 91.5728 200.747 80.1408 203.587 74.9776C203.863 74.4241 204.779 73.7795 205.604 74.5161C206.336 75.2546 206.336 75.6229 206.062 76.1763C203.495 80.6936 189.199 90.6518 182.875 87.0555C179.76 85.3034 177.834 81.6159 178.568 78.0204C179.027 75.7154 180.401 73.318 182.234 71.1975C184.067 69.169 186.175 67.2324 188.191 65.7572C190.849 63.9138 193.323 62.807 194.332 62.9915C195.156 63.1759 195.89 63.6368 196.532 64.374C197.448 65.3889 197.814 66.587 197.631 67.6945C197.539 68.5237 197.172 69.3535 196.715 70.2752C195.706 72.2118 193.874 74.2403 191.673 75.3465ZM185.166 73.8707C186.45 73.5031 187.825 72.9497 189.291 72.305C191.215 71.2901 192.865 69.3541 193.873 67.602C194.055 67.233 194.148 66.9566 194.331 66.587C193.322 67.0492 192.131 67.7864 190.757 68.8C188.924 70.1832 186.816 71.9354 185.166 73.8707Z" fill="#272527"/>
<path d="M209.362 64.6523C209.637 64.1902 210.554 64.4679 211.287 65.2051C212.111 65.943 212.478 66.9573 212.203 67.4181L208.812 72.8584C212.02 71.2914 216.419 69.8156 218.251 72.1212C219.076 73.0422 218.802 75.1633 219.993 75.2559C221.735 75.3478 224.301 74.9788 226.776 74.2409C227.325 74.0565 227.875 73.5963 228.425 74.4254C229.066 75.3471 228.699 75.6242 228.15 75.7161C225.492 76.5459 221.093 77.4676 219.169 77.2831C216.786 77.0986 216.052 76.4533 214.036 74.0558C212.662 72.3962 204.505 79.6806 204.505 79.6806C204.322 79.7725 199.556 87.886 199.099 88.7158C198.823 89.1766 197.906 88.9002 197.173 88.1617C196.349 87.4245 195.981 86.4095 196.256 85.9487L209.362 64.6523Z" fill="#272527"/>
<path d="M246.937 40.4964C247.213 40.0349 248.036 40.3119 248.861 41.0491C249.594 41.7864 250.054 42.8013 249.779 43.2621L229.251 76.6371C233.007 73.1335 236.856 69.9075 239.789 68.6156C241.438 67.8783 242.813 67.9702 243.914 68.7994L244.005 68.8926C245.379 69.9988 246.02 71.4745 246.02 73.1335C246.113 74.2397 245.839 75.531 245.471 76.9135C244.004 81.7078 240.247 87.7015 236.213 88.6226C230.624 90.0064 228.424 86.8711 227.508 83.8289C223.109 88.2543 219.81 92.1262 219.719 92.1262C219.443 92.4945 218.618 92.2181 217.886 91.4816C217.061 90.743 216.694 89.7294 216.969 89.2679L246.937 40.4964ZM242.264 71.6584C238.872 73.226 234.199 77.2831 229.892 81.4321C229.892 82.4464 230.166 86.4102 234.015 85.4892C237.589 84.5668 241.162 78.9421 242.446 74.4248C242.813 73.3186 242.997 72.2118 243.087 71.2901C242.813 71.382 242.538 71.5665 242.264 71.6584ZM243.638 71.1056C243.638 71.1056 243.547 71.1056 243.455 71.1982C243.638 71.1982 243.729 71.2907 243.638 71.1982V71.1056Z" fill="#272527"/>
<path d="M265.724 72.8571C266.091 73.7794 265.816 74.3328 265.084 74.1477C264.35 73.9632 263.433 73.1328 263.067 72.3043C261.235 70.5521 256.743 72.6719 255.094 74.0552C251.703 76.8216 249.778 80.1408 248.77 84.3816C251.977 83.4599 260.317 73.6875 260.317 73.6875C260.682 73.3186 261.509 73.595 262.332 74.4247C262.973 75.1626 263.341 75.9918 263.066 76.4526C262.883 76.9135 261.784 79.311 262.332 81.8923C262.699 84.1059 274.615 74.0558 274.796 73.9639C275.163 73.5956 275.897 73.1341 276.628 73.8707C277.362 74.7005 277.273 75.4384 276.906 75.808C270.856 81.2476 267.282 84.4742 264.808 85.7642C260.591 87.9772 257.384 86.6866 257.475 82.1686C254.175 85.304 250.787 88.161 248.769 87.2393C248.035 86.9629 247.487 86.4095 246.936 85.8568C246.018 84.658 245.654 83.3667 245.837 81.9842C245.928 80.878 246.294 79.6799 246.845 78.4805C248.036 75.8999 250.145 73.0409 252.526 71.1056C256.652 67.6951 264.167 67.51 265.724 72.8571Z" fill="#272527"/>
<path d="M280.022 64.6523C280.296 64.1902 281.212 64.4679 281.946 65.2051C282.772 65.943 283.136 66.9573 282.862 67.4181L279.474 72.8584C282.68 71.2914 287.078 69.8156 288.913 72.1212C289.736 73.0422 289.462 75.1633 290.652 75.2559C292.394 75.3478 294.96 74.9788 297.437 74.2409C297.986 74.0565 298.534 73.5963 299.084 74.4254C299.728 75.3471 299.361 75.6242 298.809 75.7161C296.15 76.5459 291.753 77.4676 289.829 77.2831C287.445 77.0986 286.711 76.4533 284.697 74.0558C283.322 72.3962 275.165 79.6806 275.165 79.6806C274.981 79.7725 270.216 87.886 269.756 88.7158C269.482 89.1766 268.566 88.9002 267.832 88.1617C267.008 87.4245 266.642 86.4095 266.916 85.9487L280.022 64.6523Z" fill="#272527"/>
<path d="M92.649 110.813H91.6108C91.5335 110.424 91.3936 110.065 91.1911 109.735C90.9923 109.402 90.742 109.111 90.4401 108.863C90.1382 108.615 89.7958 108.423 89.4129 108.285C89.0301 108.148 88.6159 108.08 88.1704 108.08C87.4562 108.08 86.8046 108.267 86.2155 108.641C85.6302 109.015 85.1608 109.565 84.8074 110.291C84.4576 111.013 84.2827 111.898 84.2827 112.947C84.2827 114.002 84.4576 114.891 84.8074 115.613C85.1608 116.335 85.6302 116.884 86.2155 117.258C86.8046 117.628 87.4562 117.813 88.1704 117.813C88.6159 117.813 89.0301 117.745 89.4129 117.608C89.7958 117.471 90.1382 117.28 90.4401 117.035C90.742 116.787 90.9923 116.497 91.1911 116.163C91.3936 115.83 91.5335 115.469 91.6108 115.08H92.649C92.557 115.602 92.3839 116.089 92.1299 116.541C91.8796 116.989 91.5593 117.382 91.169 117.719C90.7825 118.056 90.337 118.319 89.8326 118.508C89.3283 118.696 88.7742 118.791 88.1704 118.791C87.2206 118.791 86.3775 118.552 85.6412 118.074C84.9049 117.593 84.3269 116.915 83.9072 116.041C83.4912 115.167 83.2832 114.135 83.2832 112.947C83.2832 111.758 83.4912 110.726 83.9072 109.852C84.3269 108.978 84.9049 108.302 85.6412 107.824C86.3775 107.343 87.2206 107.102 88.1704 107.102C88.7742 107.102 89.3283 107.197 89.8326 107.386C90.337 107.571 90.7825 107.834 91.169 108.174C91.5593 108.511 91.8796 108.904 92.1299 109.352C92.3839 109.8 92.557 110.287 92.649 110.813Z" fill="#272527"/>
<path d="M104.79 107.258H105.822V114.791C105.822 115.565 105.642 116.258 105.281 116.869C104.92 117.476 104.418 117.956 103.774 118.308C103.133 118.656 102.387 118.83 101.537 118.83C100.69 118.83 99.9448 118.654 99.3005 118.302C98.6563 117.95 98.1537 117.471 97.793 116.863C97.4322 116.256 97.2518 115.565 97.2518 114.791V107.258H98.2844V114.719C98.2844 115.322 98.4188 115.861 98.6876 116.335C98.9563 116.806 99.3337 117.176 99.8196 117.446C100.309 117.717 100.882 117.852 101.537 117.852C102.192 117.852 102.765 117.717 103.254 117.446C103.744 117.176 104.121 116.806 104.387 116.335C104.655 115.861 104.79 115.322 104.79 114.719V107.258Z" fill="#272527"/>
<path d="M117.142 110.102C117.079 109.469 116.801 108.965 116.308 108.591C115.814 108.217 115.194 108.03 114.447 108.03C113.92 108.03 113.456 108.121 113.055 108.302C112.658 108.484 112.345 108.735 112.116 109.058C111.892 109.376 111.779 109.739 111.779 110.147C111.779 110.447 111.844 110.71 111.973 110.935C112.102 111.161 112.275 111.356 112.492 111.519C112.713 111.678 112.956 111.815 113.221 111.93C113.49 112.045 113.76 112.141 114.033 112.219L115.225 112.563C115.586 112.663 115.947 112.791 116.308 112.947C116.669 113.102 116.998 113.298 117.296 113.535C117.598 113.769 117.839 114.056 118.02 114.397C118.204 114.734 118.296 115.139 118.296 115.613C118.296 116.221 118.139 116.767 117.826 117.252C117.513 117.737 117.064 118.122 116.479 118.408C115.894 118.689 115.192 118.83 114.375 118.83C113.606 118.83 112.937 118.702 112.37 118.446C111.803 118.187 111.358 117.83 111.034 117.374C110.71 116.919 110.528 116.391 110.487 115.791H111.548C111.584 116.239 111.732 116.619 111.989 116.93C112.247 117.241 112.582 117.478 112.994 117.641C113.407 117.8 113.867 117.88 114.375 117.88C114.938 117.88 115.439 117.785 115.877 117.596C116.319 117.404 116.665 117.137 116.915 116.797C117.169 116.452 117.296 116.052 117.296 115.597C117.296 115.211 117.197 114.889 116.998 114.63C116.799 114.367 116.521 114.147 116.164 113.969C115.811 113.791 115.4 113.634 114.933 113.497L113.58 113.097C112.692 112.83 112.004 112.461 111.514 111.991C111.025 111.521 110.78 110.921 110.78 110.191C110.78 109.58 110.942 109.043 111.266 108.58C111.594 108.113 112.035 107.75 112.591 107.491C113.151 107.228 113.779 107.097 114.474 107.097C115.178 107.097 115.8 107.226 116.341 107.486C116.882 107.745 117.311 108.102 117.628 108.558C117.948 109.01 118.119 109.524 118.141 110.102H117.142Z" fill="#272527"/>
<path d="M122.273 108.191V107.258H130.474V108.191H126.89V118.635H125.857V108.191H122.273Z" fill="#272527"/>
<path d="M143.777 112.947C143.777 114.132 143.567 115.163 143.147 116.041C142.728 116.915 142.15 117.593 141.413 118.074C140.681 118.552 139.838 118.791 138.884 118.791C137.931 118.791 137.086 118.552 136.349 118.074C135.617 117.593 135.041 116.915 134.621 116.041C134.205 115.163 133.997 114.132 133.997 112.947C133.997 111.761 134.205 110.732 134.621 109.858C135.041 108.98 135.619 108.302 136.355 107.824C137.091 107.343 137.934 107.102 138.884 107.102C139.838 107.102 140.681 107.343 141.413 107.824C142.15 108.302 142.728 108.98 143.147 109.858C143.567 110.732 143.777 111.761 143.777 112.947ZM142.772 112.947C142.772 111.928 142.602 111.056 142.264 110.33C141.925 109.6 141.463 109.043 140.878 108.658C140.292 108.273 139.628 108.08 138.884 108.08C138.144 108.08 137.481 108.273 136.896 108.658C136.311 109.043 135.847 109.598 135.504 110.324C135.166 111.05 134.996 111.924 134.996 112.947C134.996 113.965 135.166 114.837 135.504 115.563C135.843 116.289 136.305 116.847 136.891 117.235C137.476 117.621 138.14 117.813 138.884 117.813C139.628 117.813 140.292 117.621 140.878 117.235C141.467 116.85 141.931 116.295 142.269 115.569C142.608 114.839 142.775 113.965 142.772 112.947Z" fill="#272527"/>
<path d="M148.451 107.258H149.644L153.747 117.169H153.847L157.95 107.258H159.143V118.635H158.171V109.452H158.082L154.266 118.635H153.328L149.512 109.452H149.423V118.635H148.451V107.258Z" fill="#272527"/>
<path d="M170.877 118.635V107.258H174.528C175.33 107.258 176 107.404 176.538 107.697C177.079 107.985 177.486 108.387 177.758 108.902C178.034 109.413 178.172 110 178.172 110.663C178.172 111.326 178.034 111.911 177.758 112.419C177.486 112.926 177.081 113.322 176.543 113.608C176.006 113.893 175.339 114.035 174.544 114.035H171.435V113.085H174.517C175.106 113.085 175.595 112.987 175.985 112.791C176.379 112.595 176.672 112.315 176.863 111.952C177.059 111.589 177.156 111.16 177.156 110.663C177.156 110.167 177.059 109.734 176.863 109.363C176.668 108.989 176.374 108.7 175.98 108.497C175.59 108.293 175.096 108.191 174.5 108.191H171.91V118.635H170.877ZM175.864 113.502L178.647 118.635H177.454L174.699 113.502H175.864Z" fill="#272527"/>
<path d="M182.881 118.635H181.799L185.913 107.258H187.018L191.132 118.635H190.049L186.504 108.608H186.427L182.881 118.635ZM183.66 114.274H189.271V115.208H183.66V114.274Z" fill="#272527"/>
<path d="M198.56 118.635H195.247V107.258H198.759C199.838 107.258 200.76 107.484 201.526 107.935C202.295 108.387 202.884 109.035 203.293 109.88C203.702 110.724 203.906 111.737 203.906 112.919C203.906 114.111 203.696 115.135 203.276 115.991C202.86 116.843 202.253 117.496 201.454 117.952C200.659 118.408 199.694 118.635 198.56 118.635ZM196.28 117.702H198.5C199.472 117.702 200.285 117.509 200.941 117.124C201.596 116.739 202.087 116.189 202.415 115.474C202.743 114.759 202.906 113.908 202.906 112.919C202.903 111.937 202.741 111.093 202.42 110.385C202.104 109.678 201.633 109.135 201.007 108.758C200.385 108.38 199.615 108.191 198.698 108.191H196.28V117.702Z" fill="#272527"/>
<path d="M209.619 107.258V118.635H208.586V107.258H209.619Z" fill="#272527"/>
<path d="M224.075 112.947C224.075 114.132 223.865 115.163 223.445 116.041C223.025 116.915 222.447 117.593 221.711 118.074C220.978 118.552 220.135 118.791 219.182 118.791C218.228 118.791 217.383 118.552 216.647 118.074C215.915 117.593 215.338 116.915 214.919 116.041C214.503 115.163 214.295 114.132 214.295 112.947C214.295 111.761 214.503 110.732 214.919 109.858C215.338 108.98 215.916 108.302 216.653 107.824C217.389 107.343 218.232 107.102 219.182 107.102C220.135 107.102 220.978 107.343 221.711 107.824C222.447 108.302 223.025 108.98 223.445 109.858C223.865 110.732 224.075 111.761 224.075 112.947ZM223.07 112.947C223.07 111.928 222.9 111.056 222.562 110.33C222.223 109.6 221.761 109.043 221.175 108.658C220.59 108.273 219.926 108.08 219.182 108.08C218.442 108.08 217.779 108.273 217.194 108.658C216.609 109.043 216.145 109.598 215.802 110.324C215.464 111.05 215.294 111.924 215.294 112.947C215.294 113.965 215.464 114.837 215.802 115.563C216.141 116.289 216.603 116.847 217.188 117.235C217.774 117.621 218.438 117.813 219.182 117.813C219.926 117.813 220.59 117.621 221.175 117.235C221.764 116.85 222.228 116.295 222.567 115.569C222.906 114.839 223.073 113.965 223.07 112.947Z" fill="#272527"/>
<path d="M241.441 110.102C241.378 109.469 241.1 108.965 240.607 108.591C240.114 108.217 239.493 108.03 238.746 108.03C238.219 108.03 237.756 108.121 237.354 108.302C236.957 108.484 236.644 108.735 236.415 109.058C236.191 109.376 236.079 109.739 236.079 110.147C236.079 110.447 236.143 110.71 236.272 110.935C236.401 111.161 236.574 111.356 236.791 111.519C237.012 111.678 237.255 111.815 237.52 111.93C237.789 112.045 238.059 112.141 238.332 112.219L239.524 112.563C239.885 112.663 240.246 112.791 240.607 112.947C240.968 113.102 241.297 113.298 241.595 113.535C241.897 113.769 242.138 114.056 242.319 114.397C242.503 114.734 242.595 115.139 242.595 115.613C242.595 116.221 242.438 116.767 242.125 117.252C241.813 117.737 241.363 118.122 240.778 118.408C240.193 118.689 239.491 118.83 238.674 118.83C237.905 118.83 237.236 118.702 236.669 118.446C236.103 118.187 235.657 117.83 235.333 117.374C235.009 116.919 234.827 116.391 234.786 115.791H235.847C235.883 116.239 236.031 116.619 236.288 116.93C236.546 117.241 236.881 117.478 237.294 117.641C237.706 117.8 238.166 117.88 238.674 117.88C239.237 117.88 239.738 117.785 240.176 117.596C240.618 117.404 240.964 117.137 241.214 116.797C241.468 116.452 241.595 116.052 241.595 115.597C241.595 115.211 241.496 114.889 241.297 114.63C241.098 114.367 240.82 114.147 240.463 113.969C240.11 113.791 239.699 113.634 239.232 113.497L237.879 113.097C236.992 112.83 236.303 112.461 235.814 111.991C235.324 111.521 235.079 110.921 235.079 110.191C235.079 109.58 235.241 109.043 235.565 108.58C235.893 108.113 236.334 107.75 236.89 107.491C237.45 107.228 238.078 107.097 238.773 107.097C239.477 107.097 240.099 107.226 240.64 107.486C241.181 107.745 241.61 108.102 241.927 108.558C242.247 109.01 242.418 109.524 242.44 110.102H241.441Z" fill="#272527"/>
<path d="M247.257 118.635V107.258H248.29V112.474H254.707V107.258H255.739V118.635H254.707V113.408H248.29V118.635H247.257Z" fill="#272527"/>
<path d="M270.187 112.947C270.187 114.132 269.977 115.163 269.557 116.041C269.138 116.915 268.56 117.593 267.823 118.074C267.091 118.552 266.248 118.791 265.294 118.791C264.341 118.791 263.496 118.552 262.759 118.074C262.027 117.593 261.451 116.915 261.031 116.041C260.615 115.163 260.407 114.132 260.407 112.947C260.407 111.761 260.615 110.732 261.031 109.858C261.451 108.98 262.029 108.302 262.765 107.824C263.501 107.343 264.344 107.102 265.294 107.102C266.248 107.102 267.091 107.343 267.823 107.824C268.56 108.302 269.138 108.98 269.557 109.858C269.977 110.732 270.187 111.761 270.187 112.947ZM269.182 112.947C269.182 111.928 269.012 111.056 268.674 110.33C268.335 109.6 267.873 109.043 267.288 108.658C266.702 108.273 266.038 108.08 265.294 108.08C264.554 108.08 263.891 108.273 263.306 108.658C262.721 109.043 262.257 109.598 261.914 110.324C261.576 111.05 261.406 111.924 261.406 112.947C261.406 113.965 261.576 114.837 261.914 115.563C262.253 116.289 262.715 116.847 263.301 117.235C263.886 117.621 264.55 117.813 265.294 117.813C266.038 117.813 266.702 117.621 267.288 117.235C267.877 116.85 268.341 116.295 268.679 115.569C269.018 114.839 269.186 113.965 269.182 112.947Z" fill="#272527"/>
<path d="M274.861 118.635V107.258H278.512C279.314 107.258 279.984 107.413 280.522 107.724C281.063 108.032 281.47 108.45 281.742 108.98C282.018 109.51 282.156 110.106 282.156 110.769C282.156 111.432 282.02 112.03 281.748 112.563C281.475 113.093 281.07 113.513 280.533 113.824C279.995 114.132 279.327 114.285 278.528 114.285H275.657V113.352H278.501C279.093 113.352 279.585 113.241 279.975 113.019C280.365 112.793 280.656 112.485 280.848 112.097C281.043 111.708 281.14 111.265 281.14 110.769C281.14 110.273 281.043 109.83 280.848 109.441C280.656 109.052 280.363 108.747 279.97 108.524C279.579 108.302 279.084 108.191 278.484 108.191H275.894V118.635H274.861Z" fill="#272527"/>
</svg>
